<svg width="31" height="50" viewBox="0 0 31 50" fill="none" xmlns="http://www.w3.org/2000/svg">
<mask id="path-1-inside-1" fill="white">
<path fill-rule="evenodd" clip-rule="evenodd" d="M30.1929 4.22617L21.1299 0L3.01767 38.8418L12.0807 43.0679L30.1929 4.22617ZM11.7186 43.8446L4.53057 47.4283L2.6555 39.6185L11.7186 43.8446Z"/>
</mask>
<path d="M21.1299 0L21.5525 -0.906308L20.6462 -1.32893L20.2236 -0.422618L21.1299 0ZM30.1929 4.22617L31.0992 4.64879L31.5219 3.74248L30.6156 3.31987L30.1929 4.22617ZM3.01767 38.8418L2.11136 38.4191L1.68875 39.3255L2.59505 39.7481L3.01767 38.8418ZM12.0807 43.0679L11.6581 43.9742L12.5644 44.3969L12.987 43.4906L12.0807 43.0679ZM4.53057 47.4283L3.5582 47.6618L3.85169 48.8842L4.97676 48.3233L4.53057 47.4283ZM11.7186 43.8446L12.1647 44.7396L14.0202 43.8145L12.1412 42.9383L11.7186 43.8446ZM2.6555 39.6185L3.07811 38.7121L1.19912 37.836L1.68313 39.8519L2.6555 39.6185ZM20.7073 0.906308L29.7703 5.13248L30.6156 3.31987L21.5525 -0.906308L20.7073 0.906308ZM3.92398 39.2644L22.0362 0.422618L20.2236 -0.422618L2.11136 38.4191L3.92398 39.2644ZM12.5033 42.1616L3.44029 37.9355L2.59505 39.7481L11.6581 43.9742L12.5033 42.1616ZM29.2866 3.80356L11.1744 42.6453L12.987 43.4906L31.0992 4.64879L29.2866 3.80356ZM4.97676 48.3233L12.1647 44.7396L11.2724 42.9497L4.08438 46.5334L4.97676 48.3233ZM1.68313 39.8519L3.5582 47.6618L5.50294 47.1949L3.62786 39.385L1.68313 39.8519ZM12.1412 42.9383L3.07811 38.7121L2.23288 40.5248L11.2959 44.7509L12.1412 42.9383Z" fill="black" mask="url(#path-1-inside-1)"/>
<rect x="20.0951" y="3.06397" width="9.28569" height="0.714286" transform="rotate(25 20.0951 3.06397)" stroke="black" stroke-width="0.714286"/>
<rect x="3.19864" y="38.7489" width="0.249999" height="0.892858" transform="rotate(25 3.19864 38.7489)" stroke="black" stroke-width="0.249999"/>
<rect x="11.8085" y="42.7643" width="0.249999" height="0.892858" transform="rotate(25 11.8085 42.7643)" stroke="black" stroke-width="0.249999"/>
</svg>
