<svg width="30" height="30" viewBox="0 0 30 30" fill="none" xmlns="http://www.w3.org/2000/svg">
<path d="M4.83806 8.47854C4.81442 8.35799 4.79289 8.24804 4.7736 8.14941H25.2031C25.1811 8.24335 25.1568 8.34724 25.1302 8.46048C24.9919 9.04928 24.7935 9.89104 24.5527 10.9027C24.0712 12.9261 23.4206 15.6285 22.7441 18.3453C22.0673 21.0632 21.3656 23.7914 20.7818 25.8682C20.4895 26.9077 20.2288 27.7768 20.0168 28.3977C19.9104 28.7095 19.8197 28.9482 19.7467 29.1112C19.7253 29.1589 19.7071 29.1963 19.6922 29.2247C19.6772 29.2288 19.6591 29.2334 19.6376 29.2383C19.5453 29.2597 19.4203 29.2815 19.2626 29.3028C18.948 29.3453 18.532 29.3817 18.0429 29.4113C17.0663 29.4703 15.8269 29.5 14.5834 29.5C13.3399 29.5 12.1005 29.4703 11.124 29.4113C10.6348 29.3817 10.2189 29.3453 9.90421 29.3028C9.7465 29.2815 9.62158 29.2597 9.52918 29.2383C9.51042 29.234 9.49425 29.2299 9.48043 29.2263C9.46773 29.1999 9.45257 29.1662 9.43508 29.124C9.36798 28.9623 9.28599 28.7246 9.19083 28.4131C9.0014 27.793 8.77297 26.9245 8.51972 25.8851C8.01381 23.8088 7.41615 21.0809 6.84351 18.3631C6.27109 15.6463 5.7246 12.9441 5.32116 10.9207C5.11945 9.90905 4.95354 9.06732 4.83806 8.47854ZM19.6524 29.2914C19.6524 29.2912 19.6545 29.288 19.6588 29.2827C19.6546 29.289 19.6525 29.2916 19.6524 29.2914ZM9.52073 29.2989C9.52068 29.2992 9.51847 29.2964 9.51418 29.2896C9.51863 29.2952 9.52077 29.2986 9.52073 29.2989Z" stroke="black"/>
<path d="M1.51697 5.23705C2.27972 4.71014 3.37397 4.01086 4.71136 3.31162C7.41804 1.89647 11.0855 0.5 15 0.5C18.9145 0.5 22.582 1.89647 25.2886 3.31162C26.626 4.01086 27.7203 4.71014 28.483 5.23705H15H1.51697Z" stroke="black"/>
</svg>
