<svg width="48" height="48" viewBox="0 0 48 48" fill="none" xmlns="http://www.w3.org/2000/svg">
<path d="M13.5465 47H34.4554C41.3842 47 47 41.3842 47 34.4535V13.5446C47 6.61583 41.3842 1 34.4535 1H13.5446C6.61583 1 1 6.61583 1 13.5465V34.4554C1 41.3842 6.61583 47 13.5465 47Z" stroke="black" stroke-miterlimit="10"/>
<path d="M24 12.5001C20.95 12.5001 18.0249 13.7117 15.8683 15.8684C13.7116 18.0251 12.5 20.9501 12.5 24.0001C12.5 27.0501 13.7116 29.9752 15.8683 32.1319C18.0249 34.2885 20.95 35.5001 24 35.5001C27.05 35.5001 29.9751 34.2885 32.1317 32.1319C34.2884 29.9752 35.5 27.0501 35.5 24.0001C35.5 20.9501 34.2884 18.0251 32.1317 15.8684C29.9751 13.7117 27.05 12.5001 24 12.5001Z" stroke="black" stroke-miterlimit="10"/>
<path d="M38.375 6.75024C37.9975 6.75024 37.6236 6.82461 37.2748 6.96909C36.926 7.11357 36.609 7.32534 36.3421 7.59231C36.0751 7.85928 35.8633 8.17622 35.7188 8.52503C35.5744 8.87384 35.5 9.24769 35.5 9.62524C35.5 10.0028 35.5744 10.3766 35.7188 10.7255C35.8633 11.0743 36.0751 11.3912 36.3421 11.6582C36.609 11.9251 36.926 12.1369 37.2748 12.2814C37.6236 12.4259 37.9975 12.5002 38.375 12.5002C38.7526 12.5002 39.1264 12.4259 39.4752 12.2814C39.824 12.1369 40.141 11.9251 40.4079 11.6582C40.6749 11.3912 40.8867 11.0743 41.0312 10.7255C41.1756 10.3766 41.25 10.0028 41.25 9.62524C41.25 9.24769 41.1756 8.87384 41.0312 8.52503C40.8867 8.17622 40.6749 7.85928 40.4079 7.59231C40.141 7.32534 39.824 7.11357 39.4752 6.96909C39.1264 6.82461 38.7526 6.75024 38.375 6.75024V6.75024Z" stroke="black"/>
</svg>
