<svg width="52" height="48" viewBox="0 0 52 48" fill="none" xmlns="http://www.w3.org/2000/svg">
<g>
<path d="M47.8923 1.29276C46.3626 1.91741 2.94535 20.8397 2.94535 20.8397C2.94535 20.8397 0.842635 21.583 1.00942 22.9558C1.17621 24.3285 2.89174 24.9568 2.89174 24.9568L14.0665 28.8452C14.0665 28.8452 17.4404 40.2825 18.1052 42.4531C18.7699 44.6272 19.3013 44.6781 19.3013 44.6781C19.9184 44.9565 20.4831 44.5122 20.4831 44.5122L27.7038 37.7065L38.9596 46.6271C42.0023 47.9999 43.109 45.1405 43.109 45.1405L50.8635 4.07221C51.5497 0.89448 49.5077 0.63542 47.8923 1.29276Z" stroke="black" stroke-miterlimit="10"/>
<path d="M14.1045 28.8431L42.6967 9.47412L22.4439 33.6854" stroke="black" stroke-miterlimit="10" stroke-linecap="round" stroke-linejoin="round"/>
<path d="M20.0615 44.5801L22.4442 33.6851L27.2096 37.3167" stroke="black" stroke-miterlimit="10" stroke-linecap="round" stroke-linejoin="round"/>
</g>
</svg>
