<svg width="27" height="15" viewBox="0 0 27 15" fill="none" xmlns="http://www.w3.org/2000/svg">
<path d="M19.2191 7.5C19.2191 10.5323 16.7317 13 13.6516 13C10.5716 13 8.08423 10.5323 8.08423 7.5C8.08423 4.46769 10.5716 2 13.6516 2C16.7317 2 19.2191 4.46769 19.2191 7.5Z" stroke="black"/>
<path d="M1.41951 8.32346C1.08861 7.98287 0.831431 7.69904 0.656691 7.5C0.831431 7.30096 1.08861 7.01713 1.41951 6.67654C2.09009 5.98634 3.06054 5.06606 4.25848 4.14665C6.66634 2.29863 9.93355 0.5 13.5 0.5C17.0665 0.5 20.3337 2.29863 22.7415 4.14665C23.9395 5.06606 24.9099 5.98634 25.5805 6.67654C25.9114 7.01713 26.1686 7.30096 26.3433 7.5C26.1686 7.69904 25.9114 7.98287 25.5805 8.32346C24.9099 9.01366 23.9395 9.93394 22.7415 10.8534C20.3337 12.7014 17.0665 14.5 13.5 14.5C9.93355 14.5 6.66634 12.7014 4.25848 10.8534C3.06054 9.93394 2.09009 9.01366 1.41951 8.32346Z" stroke="black"/>
</svg>
