<svg width="48" height="48" viewBox="0 0 48 48" fill="none" xmlns="http://www.w3.org/2000/svg">
<g>
<path d="M5.6 47H42.4C44.9403 47 47 44.9403 47 42.4V5.6C47 3.05965 44.9403 1 42.4 1H5.6C3.05965 1 1 3.05965 1 5.6V42.4C1 44.9403 3.05965 47 5.6 47Z" stroke="black" stroke-miterlimit="10" stroke-linecap="round" stroke-linejoin="round"/>
<path d="M35.473 27.256C37.8117 29.4337 38.2967 30.4927 38.3762 30.6245C39.3453 32.2366 37.3015 32.3631 37.3015 32.3631L33.3967 32.3474C33.3967 32.3474 32.5562 32.5126 31.4522 31.7525C29.9917 30.7489 28.6158 28.1384 27.5422 28.4761C26.641 28.7583 26.3723 29.6574 26.3723 30.7499C26.3723 31.142 26.0984 31.3166 25.3739 31.3166C24.6494 31.3166 23.9479 31.3166 23.6259 31.3166C21.2673 31.3166 19.005 31.372 16.4509 28.5743C12.8389 24.6173 9.4422 17.5668 9.4422 17.5668C9.4422 17.5668 9.25506 17.1653 9.45893 16.9217C9.68997 16.6478 10.3172 16.6823 10.3172 16.6823L14.4949 16.6813C14.4949 16.6813 14.888 16.7597 15.1702 16.9677C15.4034 17.1381 15.533 17.4654 15.533 17.4654C15.533 17.4654 16.2429 18.8495 17.1367 20.3989C18.8827 23.4234 19.6939 24.0862 20.2867 23.7611C21.1513 23.2896 20.892 19.4873 20.892 19.4873C20.892 19.4873 20.9087 18.1062 20.4571 17.4925C20.109 17.0158 19.4514 16.8768 19.1607 16.8381C18.9255 16.8067 19.3102 16.2599 19.811 16.0132C20.5627 15.6442 21.8904 15.6243 23.4597 15.64C24.6807 15.6525 24.7152 15.7822 25.192 15.8972C26.6326 16.2453 26.1433 17.5929 26.1433 20.8233C26.1433 21.8583 25.9572 23.3136 26.7016 23.7956C27.0226 24.0036 28.1234 23.7726 30.0805 20.4397C31.0099 18.8589 31.7187 17.2814 31.7187 17.2814C31.7187 17.2814 31.8714 16.9928 32.1077 16.8506C32.3502 16.7053 32.3418 16.7084 32.6753 16.7084C33.0088 16.7084 36.3407 16.6813 37.0725 16.6813C37.8033 16.6813 38.4881 16.6729 38.6072 17.1214C38.7766 17.7664 38.0981 18.9342 36.3031 21.3346C33.3517 25.2759 33.0245 24.978 35.473 27.256Z" stroke="black" stroke-miterlimit="10" stroke-linecap="round" stroke-linejoin="round"/>
</g>
</svg>
